<svg xmlns="http://www.w3.org/2000/svg" width="512" height="512" viewBox="0 0 512 512">
  <defs>
    <linearGradient id="deliveryGradient" x1="0%" y1="0%" x2="100%" y2="100%">
      <stop offset="0%" style="stop-color:#22c55e;stop-opacity:1" />
      <stop offset="100%" style="stop-color:#16a34a;stop-opacity:1" />
    </linearGradient>
  </defs>
  
  <!-- Background circle -->
  <circle cx="256" cy="256" r="240" fill="url(#deliveryGradient)" stroke="#14532d" stroke-width="16"/>
  
  <!-- Delivery truck icon -->
  <g transform="translate(140, 180) scale(1.8)">
    <path d="M20 8h-3l-1.6-4.8c-.2-.5-.7-.8-1.2-.8H4c-1.1 0-2 .9-2 2v10c0 1.1.9 2 2 2h1.3c-.2-.6-.3-1.3-.3-2 0-2.8 2.2-5 5-5s5 2.2 5 5c0 .7-.1 1.4-.3 2h4.6c-.2-.6-.3-1.3-.3-2 0-2.8 2.2-5 5-5s5 2.2 5 5c0 .7-.1 1.4-.3 2H32c1.1 0 2-.9 2-2v-5c0-1.1-.9-2-2-2zm-10-2v3h-6V6h6z" fill="white"/>
    <circle cx="10" cy="14" r="3" fill="white"/>
    <circle cx="26" cy="14" r="3" fill="white"/>
  </g>
  
  <!-- Speed lines -->
  <g stroke="white" stroke-width="4" opacity="0.8">
    <line x1="80" y1="200" x2="110" y2="200"/>
    <line x1="85" y1="220" x2="105" y2="220"/>
    <line x1="80" y1="240" x2="115" y2="240"/>
  </g>
  
  <!-- Location pin -->
  <g transform="translate(340, 140) scale(1.2)">
    <path d="M12 2C8.13 2 5 5.13 5 9c0 5.25 7 13 7 13s7-7.75 7-13c0-3.87-3.13-7-7-7zm0 9.5c-1.38 0-2.5-1.12-2.5-2.5s1.12-2.5 2.5-2.5 2.5 1.12 2.5 2.5-1.12 2.5-2.5 2.5z" fill="white"/>
  </g>
  
  <!-- Text -->
  <text x="256" y="380" text-anchor="middle" fill="white" font-family="Arial, sans-serif" font-size="48" font-weight="bold">RNCP</text>
</svg>